<?xml version="1.0" encoding="iso-8859-1"?>
<!-- Generator: Adobe Illustrator 19.0.0, SVG Export Plug-In . SVG Version: 6.00 Build 0)  -->
<svg version="1.1" id="Layer_1" xmlns="http://www.w3.org/2000/svg" xmlns:xlink="http://www.w3.org/1999/xlink" x="0px" y="0px"
	 viewBox="0 0 480 480" style="enable-background:new 0 0 480 480;" xml:space="preserve">
<g>
	<g>
		<path d="M480,168.492C480,83.47,410.827,14.3,325.801,14.3c-31.738,0-61.265,9.641-85.812,26.144
			C215.439,23.941,185.91,14.3,154.169,14.3C69.16,14.3,0,83.47,0,168.492c0,60.52,35.038,112.999,85.882,138.233
			c-0.048,1.589-0.081,3.182-0.081,4.783C85.801,396.53,154.974,465.7,240,465.7c85.034,0,154.214-69.17,154.214-154.192
			c0-1.606-0.033-3.204-0.082-4.798C444.97,281.469,480,228.999,480,168.492z M239.99,65.402
			c28.734,23.952,47.341,59.658,48.35,99.661c-15.212-5.034-31.462-7.769-48.34-7.769c-16.884,0-33.139,2.737-48.355,7.775
			C192.652,125.064,211.258,89.356,239.99,65.402z M192.729,185.9c14.71-5.556,30.64-8.605,47.271-8.605
			c16.625,0,32.55,3.047,47.257,8.598c-4.461,34.302-21.924,64.577-47.267,85.707C214.651,250.472,197.191,220.2,192.729,185.9z
			 M223.23,283.533c-20.189,12.165-43.821,19.173-69.061,19.173c-16.62,0-32.541-3.047-47.242-8.599
			c5.537-42.585,31.111-78.963,66.923-99.34C179.888,229.794,197.778,260.812,223.23,283.533z M306.136,194.756
			c35.824,20.373,61.408,56.751,66.95,99.339c-14.714,5.559-30.649,8.611-47.285,8.611c-25.236,0-48.865-7.007-69.052-19.172
			C282.207,260.81,300.1,229.788,306.136,194.756z M20,168.492C20,94.498,80.188,34.3,154.169,34.3
			c25.239,0,48.87,7.006,69.059,19.169c-31.658,28.259-51.627,69.35-51.627,115.023c0,1.604,0.033,3.199,0.082,4.791
			c-43.323,21.503-75.161,62.78-83.635,111.957C47.446,262.139,20,218.464,20,168.492z M240,445.7
			c-72.851,0-132.33-58.347-134.156-130.763c15.208,5.034,31.452,7.769,48.325,7.769c31.741,0,61.27-9.643,85.82-26.147
			c24.547,16.505,54.074,26.147,85.812,26.147c16.89,0,33.149-2.738,48.37-7.78C372.351,387.347,312.863,445.7,240,445.7z
			 M391.964,285.225c-8.48-49.178-40.328-90.454-83.662-111.952c0.048-1.588,0.081-3.181,0.081-4.78
			c0-45.674-19.971-86.765-51.632-115.024c20.186-12.163,43.814-19.169,69.05-19.169C399.798,34.3,460,94.498,460,168.492
			C460,218.453,432.56,262.12,391.964,285.225z"/>
	</g>
</g>
<g>
</g>
<g>
</g>
<g>
</g>
<g>
</g>
<g>
</g>
<g>
</g>
<g>
</g>
<g>
</g>
<g>
</g>
<g>
</g>
<g>
</g>
<g>
</g>
<g>
</g>
<g>
</g>
<g>
</g>
</svg>
