<?xml version="1.0" encoding="iso-8859-1"?>
<!-- Generator: Adobe Illustrator 16.0.0, SVG Export Plug-In . SVG Version: 6.00 Build 0)  -->
<!DOCTYPE svg PUBLIC "-//W3C//DTD SVG 1.1//EN" "http://www.w3.org/Graphics/SVG/1.1/DTD/svg11.dtd">
<svg version="1.1" id="Capa_1" xmlns="http://www.w3.org/2000/svg" xmlns:xlink="http://www.w3.org/1999/xlink" x="0px" y="0px"
	 width="152.765px" height="152.765px" viewBox="0 0 152.765 152.765" style="enable-background:new 0 0 152.765 152.765;"
	 xml:space="preserve">
<g>
	<g>
		<g>
			<path d="M117.518,0H35.25C15.872,0,11.749,4.104,11.749,23.507v105.754c0,19.381,4.116,23.504,23.501,23.504h79.327v-6.235H35.25
				c-15.975,0-17.266-1.291-17.266-17.269V23.507c0-15.975,1.291-17.272,17.266-17.272h82.268c15.972,0,17.263,1.291,17.263,17.272
				v102.818h6.235V23.507C141.016,4.104,136.899,0,117.518,0z"/>
			<polygon points="118.443,148.892 137.149,130.186 118.443,130.186 			"/>
		</g>
		<g>
			<path d="M59.923,30.592h3.224v20.276h-3.224V30.592z"/>
			<path d="M61.528,66.238c1.221,0,2.292,0.417,3.228,1.242c0.925,0.816,1.397,1.988,1.397,3.514v10.912
				c0,1.431-0.466,2.562-1.397,3.379c-0.929,0.816-2,1.23-3.228,1.23c-1.218,0-2.326-0.414-3.23-1.23
				c-0.917-0.822-1.379-1.948-1.379-3.379V70.994c0-1.525,0.457-2.697,1.379-3.514C59.202,66.655,60.31,66.238,61.528,66.238z
				 M60.155,82.369c0,0.932,0.441,1.394,1.373,1.394c0.935,0,1.395-0.462,1.395-1.394v-11.99c0-0.916-0.454-1.379-1.395-1.379
				c-0.922,0-1.373,0.463-1.373,1.379V82.369z"/>
			<path d="M61.528,101.896c1.221,0,2.292,0.414,3.228,1.23c0.925,0.815,1.397,1.997,1.397,3.531v10.899
				c0,1.425-0.466,2.569-1.397,3.386c-0.929,0.816-2,1.23-3.228,1.23c-1.218,0-2.326-0.414-3.23-1.23
				c-0.917-0.816-1.379-1.961-1.379-3.386v-10.899c0-1.534,0.457-2.716,1.379-3.531C59.202,102.31,60.31,101.896,61.528,101.896z
				 M60.155,118.02c0,0.932,0.441,1.389,1.373,1.389c0.935,0,1.395-0.457,1.395-1.389v-11.978c0-0.932-0.454-1.395-1.395-1.395
				c-0.922,0-1.373,0.463-1.373,1.395V118.02z"/>
			<path d="M31.822,30.592c1.221,0,2.302,0.404,3.23,1.227c0.917,0.816,1.404,1.988,1.404,3.529v10.9
				c0,1.428-0.481,2.563-1.404,3.379c-0.922,0.816-2.003,1.236-3.23,1.236c-1.242,0-2.314-0.42-3.243-1.236
				c-0.898-0.815-1.379-1.951-1.379-3.379v-10.9c0-1.541,0.481-2.712,1.379-3.529C29.502,31.003,30.574,30.592,31.822,30.592z
				 M30.437,46.716c0,0.929,0.463,1.388,1.386,1.388c0.935,0,1.409-0.459,1.409-1.388v-11.98c0-0.929-0.469-1.395-1.409-1.395
				c-0.917,0-1.386,0.46-1.386,1.395V46.716z"/>
			<path d="M31.822,66.238c1.221,0,2.302,0.417,3.23,1.242c0.917,0.816,1.404,1.988,1.404,3.514v10.912
				c0,1.431-0.481,2.562-1.404,3.379s-2.003,1.23-3.23,1.23c-1.242,0-2.314-0.414-3.243-1.23c-0.898-0.822-1.379-1.948-1.379-3.379
				V70.994c0-1.525,0.481-2.697,1.379-3.514C29.502,66.655,30.574,66.238,31.822,66.238z M30.437,82.369
				c0,0.932,0.463,1.394,1.386,1.394c0.935,0,1.409-0.462,1.409-1.394v-11.99c0-0.916-0.469-1.379-1.409-1.379
				c-0.917,0-1.386,0.463-1.386,1.379V82.369z"/>
			<path d="M30.221,101.896h3.227v20.277h-3.227V101.896z"/>
			<path d="M91.243,30.592c1.224,0,2.296,0.404,3.233,1.227c0.913,0.816,1.395,1.988,1.395,3.529v10.9
				c0,1.428-0.476,2.563-1.395,3.379c-0.932,0.816-2.004,1.236-3.233,1.236c-1.236,0-2.308-0.42-3.228-1.236
				c-0.919-0.815-1.382-1.951-1.382-3.379v-10.9c0-1.541,0.456-2.712,1.382-3.529C88.936,31.003,90.007,30.592,91.243,30.592z
				 M89.854,46.716c0,0.929,0.469,1.388,1.389,1.388c0.919,0,1.406-0.459,1.406-1.388v-11.98c0-0.929-0.475-1.395-1.406-1.395
				c-0.92,0-1.389,0.46-1.389,1.395V46.716z"/>
			<path d="M91.243,66.238c1.224,0,2.296,0.417,3.233,1.242c0.913,0.816,1.395,1.988,1.395,3.514v10.912
				c0,1.431-0.476,2.562-1.395,3.379c-0.932,0.816-2.004,1.23-3.233,1.23c-1.236,0-2.308-0.414-3.228-1.23
				c-0.919-0.822-1.382-1.948-1.382-3.379V70.994c0-1.525,0.456-2.697,1.382-3.514C88.936,66.655,90.007,66.238,91.243,66.238z
				 M89.854,82.369c0,0.932,0.469,1.394,1.389,1.394c0.919,0,1.406-0.462,1.406-1.394v-11.99c0-0.916-0.475-1.379-1.406-1.379
				c-0.92,0-1.389,0.463-1.389,1.379V82.369z"/>
			<path d="M89.63,101.896h3.227v20.277H89.63V101.896z"/>
			<path d="M120.952,30.592c1.212,0,2.289,0.404,3.228,1.227c0.913,0.816,1.388,1.988,1.388,3.529v10.9
				c0,1.428-0.475,2.563-1.388,3.379c-0.926,0.816-2.01,1.236-3.228,1.236c-1.242,0-2.313-0.42-3.252-1.236
				c-0.901-0.815-1.388-1.951-1.388-3.379v-10.9c0-1.541,0.486-2.712,1.388-3.529C118.639,31.003,119.71,30.592,120.952,30.592z
				 M119.558,46.716c0,0.929,0.457,1.388,1.395,1.388c0.919,0,1.406-0.459,1.406-1.388v-11.98c0-0.929-0.48-1.395-1.406-1.395
				c-0.932,0-1.395,0.46-1.395,1.395V46.716z"/>
			<path d="M120.952,66.238c1.212,0,2.289,0.417,3.228,1.242c0.913,0.816,1.388,1.988,1.388,3.514v10.912
				c0,1.431-0.475,2.562-1.388,3.379c-0.926,0.816-2.01,1.23-3.228,1.23c-1.242,0-2.313-0.414-3.252-1.23
				c-0.901-0.822-1.388-1.948-1.388-3.379V70.994c0-1.525,0.486-2.697,1.388-3.514C118.639,66.655,119.71,66.238,120.952,66.238z
				 M119.558,82.369c0,0.932,0.457,1.394,1.395,1.394c0.919,0,1.406-0.462,1.406-1.394v-11.99c0-0.916-0.48-1.379-1.406-1.379
				c-0.932,0-1.395,0.463-1.395,1.379V82.369z"/>
			<path d="M119.345,101.896h3.215v20.277h-3.215V101.896z"/>
		</g>
	</g>
</g>
<g>
</g>
<g>
</g>
<g>
</g>
<g>
</g>
<g>
</g>
<g>
</g>
<g>
</g>
<g>
</g>
<g>
</g>
<g>
</g>
<g>
</g>
<g>
</g>
<g>
</g>
<g>
</g>
<g>
</g>
</svg>
