<?xml version="1.0" encoding="iso-8859-1"?>
<!-- Generator: Adobe Illustrator 16.0.0, SVG Export Plug-In . SVG Version: 6.00 Build 0)  -->
<!DOCTYPE svg PUBLIC "-//W3C//DTD SVG 1.1//EN" "http://www.w3.org/Graphics/SVG/1.1/DTD/svg11.dtd">
<svg version="1.1" id="Capa_1" xmlns="http://www.w3.org/2000/svg" xmlns:xlink="http://www.w3.org/1999/xlink" x="0px" y="0px"
	 width="443.336px" height="443.336px" viewBox="0 0 443.336 443.336" style="enable-background:new 0 0 443.336 443.336;"
	 xml:space="preserve">
<g>
	<g>
		<path d="M441.993,368.062l-68.646-194.324c-4.422-12.521-18.29-22.329-31.57-22.329H281.52
			c5.571-10.072,8.516-21.359,8.516-33.011c0-37.694-30.67-68.366-68.367-68.366s-68.365,30.672-68.365,68.366
			c0,11.686,2.913,22.95,8.48,33.011h-60.225c-13.28,0-27.146,9.808-31.57,22.329L1.343,368.062
			c-2.276,6.447-1.638,12.896,1.759,17.693c3.394,4.797,9.26,7.549,16.096,7.549h404.941c6.835,0,12.703-2.752,16.096-7.549
			C443.63,380.958,444.27,374.509,441.993,368.062z M433.097,380.708c-1.759,2.486-4.939,3.855-8.958,3.855H19.198
			c-4.019,0-7.199-1.369-8.958-3.855c-1.759-2.486-1.992-5.943-0.652-9.73l68.647-194.324c3.16-8.942,13.842-16.5,23.326-16.5h68.03
			c4.051,0,6.858-2.378,3.688-6.912c-7.196-10.294-11.233-22.233-11.233-34.842c0-32.875,26.746-59.623,59.623-59.623
			c32.877,0,59.625,26.748,59.625,59.623c0,11.953-3.361,23.591-10.181,33.334c-2.864,4.092-2.208,8.418,3.639,8.418h67.028
			c9.485,0,20.166,7.557,23.326,16.5l68.645,194.324C435.088,374.764,434.855,378.221,433.097,380.708z"/>
		<path d="M221.668,73.412c-24.805,0-44.985,20.184-44.985,44.987c0,15.914,8.538,30.792,22.282,38.844
			c2.084,1.219,4.763,0.521,5.981-1.563c1.221-2.083,0.521-4.762-1.565-5.984c-11.075-6.485-17.958-18.479-17.958-31.297
			c0-19.985,16.26-36.245,36.242-36.245c19.984,0,36.243,16.26,36.243,36.245c0,13.467-7.402,25.751-19.318,32.056
			c-2.135,1.13-2.95,3.775-1.82,5.909c0.785,1.483,2.3,2.329,3.868,2.329c0.69,0,1.39-0.165,2.04-0.509
			c14.788-7.825,23.974-23.069,23.974-39.785C266.653,93.596,246.474,73.412,221.668,73.412z"/>
	</g>
</g>
<g>
</g>
<g>
</g>
<g>
</g>
<g>
</g>
<g>
</g>
<g>
</g>
<g>
</g>
<g>
</g>
<g>
</g>
<g>
</g>
<g>
</g>
<g>
</g>
<g>
</g>
<g>
</g>
<g>
</g>
</svg>
